<svg version="1.1" xmlns="http://www.w3.org/2000/svg" viewBox="0 0 1588.3082885742188 1422.3826065063477" width="3176.6165771484375" height="2844.7652130126953">
  <!-- svg-source:excalidraw -->
  
  <defs>
    <style class="style-fonts">
      @font-face {
        font-family: "Virgil";
        src: url("https://file%2B.vscode-resource.vscode-cdn.net/Users/ayesha/.vscode/extensions/pomdtr.excalidraw-editor-3.5.1/public//dist/excalidraw-assets/Virgil.woff2");
      }
      @font-face {
        font-family: "Cascadia";
        src: url("https://file%2B.vscode-resource.vscode-cdn.net/Users/ayesha/.vscode/extensions/pomdtr.excalidraw-editor-3.5.1/public//dist/excalidraw-assets/Cascadia.woff2");
      }
    </style>
  </defs>
  <rect x="0" y="0" width="1588.3082885742188" height="1422.3826065063477" fill="#000"></rect><g stroke-linecap="round"><g transform="translate(779.7239685058594 764.1595230102539) rotate(0 352.79287886676383 2.715859421448556)"><path d="M-1.02 -0.39 C116.47 0.66, 586.52 6.15, 704.29 7.07 M0.64 -1.64 C118.57 -0.98, 589.19 4.22, 706.61 5.49" stroke="#318af3" stroke-width="1" fill="none"></path></g><g transform="translate(779.7239685058594 764.1595230102539) rotate(0 352.79287886676383 2.715859421448556)"><path d="M677.66 14.19 C686.94 14.21, 690.68 9.01, 708.02 4.82 M677.71 15.47 C689.41 11.89, 700.37 8.04, 707.27 5.83" stroke="#318af3" stroke-width="1" fill="none"></path></g><g transform="translate(779.7239685058594 764.1595230102539) rotate(0 352.79287886676383 2.715859421448556)"><path d="M677.88 -6.33 C687.24 -1.27, 690.93 -1.42, 708.02 4.82 M677.94 -5.05 C689.73 -0.65, 700.61 3.47, 707.27 5.83" stroke="#318af3" stroke-width="1" fill="none"></path></g></g><mask></mask><g stroke-linecap="round"><g transform="translate(98.14877319335938 287.5228042602539) rotate(0 341.38473745990547 -0.8247065316885767)"><path d="M0.01 1.06 C113.98 0.56, 570.04 -2.16, 684.21 -2.71 M-1.44 0.57 C112.31 0.2, 568.78 -1.2, 683.11 -1.46" stroke="#318af3" stroke-width="1" fill="none"></path></g><g transform="translate(98.14877319335938 287.5228042602539) rotate(0 341.38473745990547 -0.8247065316885767)"><path d="M656.72 8.4 C663.37 6.31, 673.47 3.3, 681.27 0.01 M654.19 9.12 C661.41 6.81, 667.37 3.97, 682.36 -0.79" stroke="#318af3" stroke-width="1" fill="none"></path></g><g transform="translate(98.14877319335938 287.5228042602539) rotate(0 341.38473745990547 -0.8247065316885767)"><path d="M656.66 -12.12 C663.38 -7.39, 673.5 -3.58, 681.27 0.01 M654.14 -11.4 C661.31 -9.5, 667.28 -8.13, 682.36 -0.79" stroke="#318af3" stroke-width="1" fill="none"></path></g></g><mask></mask><g transform="translate(143.48883056640625 202.0082778930664) rotate(0 115.99989318847656 37.5)"><text x="0" y="0" font-family="Virgil, Segoe UI Emoji" font-size="20px" fill="#318af3" text-anchor="start" style="white-space: pre;" direction="ltr" dominant-baseline="text-before-edge">Create User Request</text><text x="0" y="25" font-family="Virgil, Segoe UI Emoji" font-size="20px" fill="#318af3" text-anchor="start" style="white-space: pre;" direction="ltr" dominant-baseline="text-before-edge"></text><text x="0" y="50" font-family="Virgil, Segoe UI Emoji" font-size="20px" fill="#318af3" text-anchor="start" style="white-space: pre;" direction="ltr" dominant-baseline="text-before-edge">POST /api/users/signup</text></g><g transform="translate(106.45706176757812 277.15409088134766) rotate(0 173.05987548828125 62.5)"><text x="0" y="0" font-family="Virgil, Segoe UI Emoji" font-size="20px" fill="#318af3" text-anchor="start" style="white-space: pre;" direction="ltr" dominant-baseline="text-before-edge"></text><text x="0" y="25" font-family="Virgil, Segoe UI Emoji" font-size="20px" fill="#318af3" text-anchor="start" style="white-space: pre;" direction="ltr" dominant-baseline="text-before-edge">{</text><text x="0" y="50" font-family="Virgil, Segoe UI Emoji" font-size="20px" fill="#318af3" text-anchor="start" style="white-space: pre;" direction="ltr" dominant-baseline="text-before-edge">    "email": "abc@d.com",</text><text x="0" y="75" font-family="Virgil, Segoe UI Emoji" font-size="20px" fill="#318af3" text-anchor="start" style="white-space: pre;" direction="ltr" dominant-baseline="text-before-edge">    "password": "Super_strong#$2"</text><text x="0" y="100" font-family="Virgil, Segoe UI Emoji" font-size="20px" fill="#318af3" text-anchor="start" style="white-space: pre;" direction="ltr" dominant-baseline="text-before-edge">}</text></g><g stroke-linecap="round"><g transform="translate(777.3130493164062 102.2450942993164) rotate(0 1.9829757723584862 644.2100236293301)"><path d="M1.04 0.76 C1.85 215.4, 3.54 1073.97, 3.83 1288.31 M0.13 0.11 C0.91 214.35, 2.85 1071.86, 3.11 1286.43" stroke="#318af3" stroke-width="1" fill="none"></path></g></g><mask></mask><g stroke-linecap="round"><g transform="translate(1490.538391113281 105.43872833251953) rotate(0 -3.413792719719936 465.6850806568376)"><path d="M0.49 0.4 C-0.71 155.52, -5.35 775.3, -6.54 930.55 M-0.71 -0.44 C-2.1 154.86, -6.23 776.74, -7.32 931.81" stroke="#318af3" stroke-width="1" fill="none"></path></g></g><mask></mask><g stroke-linecap="round"><g transform="translate(89.7518920898437 110.48526763916016) rotate(0 -3.4298241386935047 465.2954287103936)"><path d="M0.58 -0.36 C-0.63 155.05, -5.34 776.8, -6.62 932.18 M-0.57 -1.59 C-1.98 153.54, -6.21 775.37, -7.44 930.64" stroke="#318af3" stroke-width="1" fill="none"></path></g></g><mask></mask><g stroke-linecap="round"><g transform="translate(779.9771118164062 282.1825942993164) rotate(0 40.50521460562658 38.603553250692784)"><path d="M-0.36 0.52 C13.79 7.29, 85.38 28.24, 84.95 41.06 C84.52 53.88, 11.71 71.46, -2.94 77.45 M1.66 -0.25 C15.71 6.18, 85.35 26.89, 84.42 39.55 C83.49 52.21, 10.62 69.84, -3.94 75.72" stroke="#318af3" stroke-width="1" fill="none"></path></g><g transform="translate(779.9771118164062 282.1825942993164) rotate(0 40.50521460562658 38.603553250692784)"><path d="M20.72 58.78 C14.57 62.23, 7.24 67.85, -2.77 73.95 M19.82 57.17 C13.03 62.46, 5.63 68.45, -3.47 75.9" stroke="#318af3" stroke-width="1" fill="none"></path></g><g transform="translate(779.9771118164062 282.1825942993164) rotate(0 40.50521460562658 38.603553250692784)"><path d="M26.91 78.34 C18.78 75.77, 9.56 75.38, -2.77 73.95 M26.01 76.73 C17.52 76.57, 8.4 77.12, -3.47 75.9" stroke="#318af3" stroke-width="1" fill="none"></path></g></g><mask></mask><g transform="translate(874.3326416015625 312.96329498291016) rotate(0 85.0799331665039 12.5)"><text x="0" y="0" font-family="Virgil, Segoe UI Emoji" font-size="20px" fill="#318af3" text-anchor="start" style="white-space: pre;" direction="ltr" dominant-baseline="text-before-edge">Validate Request</text></g><g stroke-linecap="round"><g transform="translate(772.8399658203125 527.3467178344727) rotate(0 -325.69154035337266 -0.11032860118791632)"><path d="M-0.12 -0.78 C-108.49 -0.86, -542.67 0.24, -651.27 0.56" stroke="#318af3" stroke-width="1.5" fill="none" stroke-dasharray="1.5 7"></path></g><g transform="translate(772.8399658203125 527.3467178344727) rotate(0 -325.69154035337266 -0.11032860118791632)"><path d="M-624.4 -9.02 C-630.81 -7.62, -635.82 -3.42, -653.03 -0.7" stroke="#318af3" stroke-width="1.5" fill="none" stroke-dasharray="1.5 5"></path></g><g transform="translate(772.8399658203125 527.3467178344727) rotate(0 -325.69154035337266 -0.11032860118791632)"><path d="M-624.34 11.5 C-630.95 8.55, -635.97 8.4, -653.03 -0.7" stroke="#318af3" stroke-width="1.5" fill="none" stroke-dasharray="1.5 5"></path></g></g><mask></mask><g transform="translate(317.04522705078125 552.8379898071289) rotate(0 89.72994232177734 12.5)"><text x="0" y="0" font-family="Virgil, Segoe UI Emoji" font-size="20px" fill="#318af3" text-anchor="start" style="white-space: pre;" direction="ltr" dominant-baseline="text-before-edge">400 Bad Request</text></g><g transform="translate(688.638427734375 451.72061920166016) rotate(0 122.33194732666016 17.5)"><text x="0" y="0" font-family="Virgil, Segoe UI Emoji" font-size="28px" fill="#318af3" text-anchor="start" style="white-space: pre;" direction="ltr" dominant-baseline="text-before-edge">[Invalid Request]</text></g><g transform="translate(691.154052734375 666.2487564086914) rotate(0 108.0799560546875 17.5)"><text x="0" y="0" font-family="Virgil, Segoe UI Emoji" font-size="28px" fill="#c92a2a" text-anchor="start" style="white-space: pre;" direction="ltr" dominant-baseline="text-before-edge">[Valid Request]</text></g><g transform="translate(670.962646484375 836.7462539672852) rotate(0 95.63395690917969 17.5)"><text x="0" y="0" font-family="Virgil, Segoe UI Emoji" font-size="28px" fill="#e67700" text-anchor="start" style="white-space: pre;" direction="ltr" dominant-baseline="text-before-edge">[User Exists]</text></g><g stroke-linecap="round" transform="translate(87.64898681640625 436.4950942993164) rotate(0 696.6974487304688 93.57061767578125)"><path d="M32 0 M32 0 C386.17 -3.04, 740.65 -2.55, 1361.39 0 M1361.39 0 C1383.8 0.58, 1392.48 9.48, 1393.39 32 M1393.39 32 C1393.54 72.37, 1393.67 114.08, 1393.39 155.14 M1393.39 155.14 C1391.87 176.54, 1382.25 185.91, 1361.39 187.14 M1361.39 187.14 C974.7 188.84, 589.02 188.15, 32 187.14 M32 187.14 C12.46 188.52, 1.89 177.98, 0 155.14 M0 155.14 C-0.5 130.7, -1.66 102.85, 0 32 M0 32 C-1.02 10.73, 12.28 1.6, 32 0" stroke="#318af3" stroke-width="1.5" fill="none" stroke-dasharray="1.5 7"></path></g><g stroke-linecap="round" transform="translate(59.81793212890625 650.6160049438477) rotate(0 722.3623657226562 380.88330078125)"><path d="M32 0 M32 0 C504.92 -1.02, 978.42 -0.35, 1412.72 0 M1412.72 0 C1436.05 1.21, 1445.03 10.94, 1444.72 32 M1444.72 32 C1446.73 204.44, 1446.56 374.97, 1444.72 729.77 M1444.72 729.77 C1444.25 750.89, 1433.96 762.41, 1412.72 761.77 M1412.72 761.77 C971.59 765.58, 530.69 765.63, 32 761.77 M32 761.77 C8.99 760.83, -1.9 751.22, 0 729.77 M0 729.77 C-0.93 527.53, -1.18 327.25, 0 32 M0 32 C0.13 11.88, 11.53 0.87, 32 0" stroke="#c92a2a" stroke-width="1.5" fill="none" stroke-dasharray="1.5 7"></path></g><g transform="translate(710.4573593139648 45.44490051269531) rotate(0 61.589942932128906 12.5)"><text x="0" y="0" font-family="Virgil, Segoe UI Emoji" font-size="20px" fill="#318af3" text-anchor="start" style="white-space: pre;" direction="ltr" dominant-baseline="text-before-edge">Auth Service</text></g><g stroke-linecap="round" transform="translate(677.7182006835938 12.082244873046875) rotate(0 94.3291015625 45.86265563964844)"><path d="M22.93 0 M22.93 0 C52.9 -2.45, 85.32 -0.51, 165.73 0 M22.93 0 C67.99 0.97, 114.15 -0.01, 165.73 0 M165.73 0 C180.1 1.09, 188.41 8.03, 188.66 22.93 M165.73 0 C182.27 0.93, 188.7 8.63, 188.66 22.93 M188.66 22.93 C187.1 36.06, 189.48 48.43, 188.66 68.79 M188.66 22.93 C188.63 32.97, 187.87 44.43, 188.66 68.79 M188.66 68.79 C188.88 82.58, 181.68 92.25, 165.73 91.73 M188.66 68.79 C188.23 84.77, 181.21 92.3, 165.73 91.73 M165.73 91.73 C130.62 93.7, 91.33 91.77, 22.93 91.73 M165.73 91.73 C130.22 91.43, 92.94 91.72, 22.93 91.73 M22.93 91.73 C9.05 93.44, -0.24 83.23, 0 68.79 M22.93 91.73 C6.23 91.4, -2.09 82.84, 0 68.79 M0 68.79 C-1.14 53.74, 1.54 36.06, 0 22.93 M0 68.79 C-0.02 53.21, 0.71 36.25, 0 22.93 M0 22.93 C1.08 9.51, 9.29 1.34, 22.93 0 M0 22.93 C-0.59 5.39, 7.21 1.84, 22.93 0" stroke="#318af3" stroke-width="1" fill="none"></path></g><g transform="translate(1468.909194946289 43.36265563964844) rotate(0 15.069992065429688 12.5)"><text x="0" y="0" font-family="Virgil, Segoe UI Emoji" font-size="20px" fill="#318af3" text-anchor="start" style="white-space: pre;" direction="ltr" dominant-baseline="text-before-edge">DB</text></g><g stroke-linecap="round" transform="translate(1389.6500854492188 10) rotate(0 94.3291015625 45.86265563964844)"><path d="M22.93 0 M22.93 0 C60.35 0.15, 101.75 0.59, 165.73 0 M22.93 0 C62.58 -1.45, 100.78 -0.55, 165.73 0 M165.73 0 C182.17 -0.29, 189.36 6.51, 188.66 22.93 M165.73 0 C182.1 -1.23, 189.79 7.48, 188.66 22.93 M188.66 22.93 C187.95 35.67, 188.23 53.67, 188.66 68.79 M188.66 22.93 C187.6 39.83, 188.71 57.69, 188.66 68.79 M188.66 68.79 C190.27 85.22, 179.53 89.9, 165.73 91.73 M188.66 68.79 C187.62 82.29, 181.06 92.54, 165.73 91.73 M165.73 91.73 C120.44 91.6, 77.79 89.59, 22.93 91.73 M165.73 91.73 C122.24 91.4, 79.41 91.04, 22.93 91.73 M22.93 91.73 C9.15 91.01, 1.52 84.17, 0 68.79 M22.93 91.73 C8 91.49, 0.79 84.6, 0 68.79 M0 68.79 C-0.76 55.95, -1.58 43.29, 0 22.93 M0 68.79 C-0.79 59.22, 0.38 49.7, 0 22.93 M0 22.93 C-1.1 9.56, 9.54 1.41, 22.93 0 M0 22.93 C-1.07 7.25, 9.84 0.46, 22.93 0" stroke="#318af3" stroke-width="1" fill="none"></path></g><g transform="translate(77.27912902832031 45.44490051269531) rotate(0 27.049972534179688 12.5)"><text x="27.049972534179688" y="0" font-family="Virgil, Segoe UI Emoji" font-size="20px" fill="#318af3" text-anchor="middle" style="white-space: pre;" direction="ltr" dominant-baseline="text-before-edge">Client</text></g><g stroke-linecap="round" transform="translate(10 12.082244873046875) rotate(0 94.3291015625 45.86265563964844)"><path d="M22.93 0 M22.93 0 C69.67 3.27, 115.88 2.74, 165.73 0 M22.93 0 C62.93 -0.6, 101.17 0.22, 165.73 0 M165.73 0 C182.88 0.41, 190.26 7.65, 188.66 22.93 M165.73 0 C181.23 -1.82, 189.4 7.52, 188.66 22.93 M188.66 22.93 C188.71 34.44, 188.04 48.55, 188.66 68.79 M188.66 22.93 C189.22 35.38, 189.42 45.99, 188.66 68.79 M188.66 68.79 C188.38 83.12, 180.46 89.95, 165.73 91.73 M188.66 68.79 C188.6 83.82, 180.31 91.56, 165.73 91.73 M165.73 91.73 C117.93 94.07, 67.21 94.15, 22.93 91.73 M165.73 91.73 C118.32 90.11, 72.5 90.38, 22.93 91.73 M22.93 91.73 C7.46 91.64, 0.37 85.22, 0 68.79 M22.93 91.73 C5.82 89.99, 1.98 84.85, 0 68.79 M0 68.79 C-0.14 55.33, 1.67 38.03, 0 22.93 M0 68.79 C-0.7 52.04, -0.74 33.68, 0 22.93 M0 22.93 C-0.52 9.13, 8.19 0.7, 22.93 0 M0 22.93 C-0.63 7.89, 9.91 -0.22, 22.93 0" stroke="#318af3" stroke-width="1" fill="none"></path></g><g transform="translate(995.9277267456055 727.9556655883789) rotate(0 105.33991241455078 12.5)"><text x="105.33991241455078" y="0" font-family="Virgil, Segoe UI Emoji" font-size="20px" fill="#318af3" text-anchor="middle" style="white-space: pre;" direction="ltr" dominant-baseline="text-before-edge">Check User Existence</text></g><g stroke-linecap="round" transform="translate(84.65679931640625 819.9872817993164) rotate(0 700.0244140625 107.11990356445312)"><path d="M32 0 M32 0 C427.17 4.46, 822.89 5.19, 1368.05 0 M1368.05 0 C1391.15 -0.79, 1398.54 11.93, 1400.05 32 M1400.05 32 C1400.31 75.85, 1401.97 118.7, 1400.05 182.24 M1400.05 182.24 C1398.97 204.65, 1388.93 215.38, 1368.05 214.24 M1368.05 214.24 C960.61 217.56, 552.05 218.89, 32 214.24 M32 214.24 C11.36 212.58, 0.79 202.49, 0 182.24 M0 182.24 C2.07 144.31, 2.85 106.74, 0 32 M0 32 C-1.12 11.25, 10.37 -0.8, 32 0" stroke="#e67700" stroke-width="1.5" fill="none" stroke-dasharray="1.5 7"></path></g><g mask="url(#mask-TiIzorHB6saVrdgbXZyc4)" stroke-linecap="round"><g transform="translate(757.9302368164062 938.8700942993164) rotate(0 -332.6150525022298 -0.9331303011625778)"><path d="M0.94 -0.29 C-110.2 -0.36, -555.24 -1.51, -666.17 -1.58" stroke="#e67700" stroke-width="1.5" fill="none" stroke-dasharray="1.5 7"></path></g><g transform="translate(757.9302368164062 938.8700942993164) rotate(0 -332.6150525022298 -0.9331303011625778)"><path d="M-638.44 -13.37 C-648.45 -6.99, -656.99 -3.48, -664.68 -3.43" stroke="#e67700" stroke-width="1.5" fill="none" stroke-dasharray="1.5 5"></path></g><g transform="translate(757.9302368164062 938.8700942993164) rotate(0 -332.6150525022298 -0.9331303011625778)"><path d="M-638.48 7.15 C-648.28 6.22, -656.81 2.44, -664.68 -3.43" stroke="#e67700" stroke-width="1.5" fill="none" stroke-dasharray="1.5 5"></path></g></g><mask id="mask-TiIzorHB6saVrdgbXZyc4"><rect x="0" y="0" fill="#fff" width="1523.1471557617188" height="1040.2320938110352"></rect><rect x="335.59183502197266" y="925.689094543457" fill="#000" width="179.4598846435547" height="25" opacity="1"></rect></mask><g transform="translate(335.59183502197266 925.689094543457) rotate(0 89.7233492922038 12.247869454696797)"><text x="89.72994232177734" y="0" font-family="Virgil, Segoe UI Emoji" font-size="20px" fill="#e67700" text-anchor="middle" style="white-space: pre;" direction="ltr" dominant-baseline="text-before-edge">400 Bad Request</text></g><g mask="url(#mask-kBVd7Z2nUPi0iY879eZYP)" stroke-linecap="round"><g transform="translate(1476.3193969726562 907.9286880493164) rotate(0 -332.38216897360985 -1.0123202849179052)"><path d="M0.51 -0.69 C-110.39 -0.87, -554.47 -1.24, -665.27 -1.34" stroke="#e67700" stroke-width="1.5" fill="none" stroke-dasharray="1.5 7"></path></g><g transform="translate(1476.3193969726562 907.9286880493164) rotate(0 -332.38216897360985 -1.0123202849179052)"><path d="M-638.21 -11.66 C-645.72 -6.8, -654.28 -5.14, -666.12 -0.24" stroke="#e67700" stroke-width="1.5" fill="none" stroke-dasharray="1.5 5"></path></g><g transform="translate(1476.3193969726562 907.9286880493164) rotate(0 -332.38216897360985 -1.0123202849179052)"><path d="M-638.23 8.86 C-645.69 7.42, -654.25 2.77, -666.12 -0.24" stroke="#e67700" stroke-width="1.5" fill="none" stroke-dasharray="1.5 5"></path></g></g><mask id="mask-kBVd7Z2nUPi0iY879eZYP"><rect x="0" y="0" fill="#fff" width="2241.5363159179688" height="1009.2906875610352"></rect><rect x="1085.3109893798828" y="894.747688293457" fill="#000" width="116.79989624023438" height="25" opacity="1"></rect></mask><g transform="translate(1085.3109893798828 894.747688293457) rotate(0 58.62623861916359 12.16867947094147)"><text x="58.39994812011719" y="0" font-family="Virgil, Segoe UI Emoji" font-size="20px" fill="#e67700" text-anchor="middle" style="white-space: pre;" direction="ltr" dominant-baseline="text-before-edge">User Exists</text></g><g transform="translate(92.4021224975586 837.0497817993164) rotate(0 14.949989318847656 12.5)"><text x="14.949989318847656" y="0" font-family="Virgil, Segoe UI Emoji" font-size="20px" fill="#e67700" text-anchor="middle" style="white-space: pre;" direction="ltr" dominant-baseline="text-before-edge">alt</text></g><g transform="translate(60.402122497558594 664.0497817993164) rotate(0 14.949989318847656 12.5)"><text x="14.949989318847656" y="0" font-family="Virgil, Segoe UI Emoji" font-size="20px" fill="#e67700" text-anchor="middle" style="white-space: pre;" direction="ltr" dominant-baseline="text-before-edge">alt</text></g><g transform="translate(88.4021224975586 450.0497817993164) rotate(0 14.949989318847656 12.5)"><text x="14.949989318847656" y="0" font-family="Virgil, Segoe UI Emoji" font-size="20px" fill="#318af3" text-anchor="middle" style="white-space: pre;" direction="ltr" dominant-baseline="text-before-edge">alt</text></g><g stroke-linecap="round" transform="translate(84.52398681640625 1078.5810317993164) rotate(0 708.2216796875 160.993896484375)"><path d="M32 0 M32 0 C402.17 4, 773.36 4.8, 1384.44 0 M1384.44 0 C1403.99 1.94, 1415.61 11.62, 1416.44 32 M1416.44 32 C1415.18 93.98, 1414.84 154.3, 1416.44 289.99 M1416.44 289.99 C1415.03 309.98, 1403.96 321.58, 1384.44 321.99 M1384.44 321.99 C1001.86 317.05, 619.5 317.23, 32 321.99 M32 321.99 C12.35 322.49, -1.98 311.62, 0 289.99 M0 289.99 C2.11 211.48, -0.04 135.8, 0 32 M0 32 C0.45 8.9, 10.7 0.39, 32 0" stroke="#5c940d" stroke-width="1.5" fill="none" stroke-dasharray="1.5 7"></path></g><g transform="translate(590.4486846923828 1104.6854629516602) rotate(0 173.54393005371094 17.5)"><text x="173.54393005371094" y="0" font-family="Virgil, Segoe UI Emoji" font-size="28px" fill="#5c940d" text-anchor="middle" style="white-space: pre;" direction="ltr" dominant-baseline="text-before-edge">[USER DOESN'T EXIST]</text></g><g mask="url(#mask--7HouFhv9DDbjUuOdjwxQ)" stroke-linecap="round"><g transform="translate(1504.2192993164062 1193.2060317993164) rotate(0 -361.57130546681583 4.275511772558048)"><path d="M0.61 0.67 C-120.09 2.11, -603.04 6.83, -723.75 7.88" stroke="#5c940d" stroke-width="1.5" fill="none" stroke-dasharray="1.5 7"></path></g><g transform="translate(1504.2192993164062 1193.2060317993164) rotate(0 -361.57130546681583 4.275511772558048)"><path d="M-694.54 -3.92 C-704.29 -0.13, -715.15 4.89, -723.22 7.04" stroke="#5c940d" stroke-width="1.5" fill="none" stroke-dasharray="1.5 5"></path></g><g transform="translate(1504.2192993164062 1193.2060317993164) rotate(0 -361.57130546681583 4.275511772558048)"><path d="M-694.35 16.6 C-704.03 13.53, -714.95 11.7, -723.22 7.04" stroke="#5c940d" stroke-width="1.5" fill="none" stroke-dasharray="1.5 5"></path></g></g><mask id="mask--7HouFhv9DDbjUuOdjwxQ"><rect x="0" y="0" fill="#fff" width="2327.1994018554688" height="1300.5997695922852"></rect><rect x="1050.919334411621" y="1184.4029006958008" fill="#000" width="183.6198272705078" height="25" opacity="1"></rect></mask><g transform="translate(1050.919334411621 1184.4029006958008) rotate(0 91.72865943796933 13.078642876073673)"><text x="91.8099136352539" y="0" font-family="Virgil, Segoe UI Emoji" font-size="20px" fill="#5c940d" text-anchor="middle" style="white-space: pre;" direction="ltr" dominant-baseline="text-before-edge">User doesn't exist</text></g><g mask="url(#mask-VuMdAgME_Il6ObIuA01nV)" stroke-linecap="round"><g transform="translate(780.5552368164062 1250.1982192993164) rotate(0 360.5295320351421 -1.2274676612391886)"><path d="M0.99 0.08 C120.95 0.02, 599.14 -0.69, 718.9 -0.9 M0.05 -0.92 C120.44 -1.26, 601.27 -2.15, 721.01 -2.54" stroke="#5c940d" stroke-width="1" fill="none"></path></g><g transform="translate(780.5552368164062 1250.1982192993164) rotate(0 360.5295320351421 -1.2274676612391886)"><path d="M692.98 5.88 C700.83 4.35, 706.71 4.28, 719.24 -1.78 M692.84 6.9 C701.65 5.57, 709.36 2.32, 721.23 -2.34" stroke="#5c940d" stroke-width="1" fill="none"></path></g><g transform="translate(780.5552368164062 1250.1982192993164) rotate(0 360.5295320351421 -1.2274676612391886)"><path d="M692.93 -14.64 C700.71 -11.51, 706.6 -6.93, 719.24 -1.78 M692.79 -13.62 C701.64 -9, 709.36 -6.31, 721.23 -2.34" stroke="#5c940d" stroke-width="1" fill="none"></path></g></g><mask id="mask-VuMdAgME_Il6ObIuA01nV"><rect x="0" y="0" fill="#fff" width="1600.6021118164062" height="1352.0341567993164"></rect><rect x="1079.2387237548828" y="1236.7802505493164" fill="#000" width="122.67990112304688" height="25" opacity="1"></rect></mask><g transform="translate(1079.2387237548828 1236.7802505493164) rotate(0 61.846045096665534 12.190501088760811)"><text x="61.33995056152344" y="0" font-family="Virgil, Segoe UI Emoji" font-size="20px" fill="#5c940d" text-anchor="middle" style="white-space: pre;" direction="ltr" dominant-baseline="text-before-edge">Create User</text></g><g mask="url(#mask-3wEBWV5p2TVo1MUbw232N)" stroke-linecap="round"><g transform="translate(1502.0708618164062 1295.4794692993164) rotate(0 -359.5163804899901 4.835136241838313)"><path d="M0.81 0.25 C-118.96 1.81, -599.86 7.82, -719.85 9.42" stroke="#5c940d" stroke-width="1.5" fill="none" stroke-dasharray="1.5 7"></path></g><g transform="translate(1502.0708618164062 1295.4794692993164) rotate(0 -359.5163804899901 4.835136241838313)"><path d="M-691.37 -3.09 C-696.18 0.49, -701.16 4.06, -719.47 9.18" stroke="#5c940d" stroke-width="1.5" fill="none" stroke-dasharray="1.5 5"></path></g><g transform="translate(1502.0708618164062 1295.4794692993164) rotate(0 -359.5163804899901 4.835136241838313)"><path d="M-691.1 17.43 C-695.98 16.9, -701.01 16.35, -719.47 9.18" stroke="#5c940d" stroke-width="1.5" fill="none" stroke-dasharray="1.5 5"></path></g></g><mask id="mask-3wEBWV5p2TVo1MUbw232N"><rect x="0" y="0" fill="#fff" width="2320.7893676757812" height="1404.1586685180664"></rect><rect x="1075.6816635131836" y="1287.3190689086914" fill="#000" width="134.0598907470703" height="25" opacity="1"></rect></mask><g transform="translate(1075.6816635131836 1287.3190689086914) rotate(0 66.87281781323253 12.995536632463313)"><text x="67.02994537353516" y="0" font-family="Virgil, Segoe UI Emoji" font-size="20px" fill="#5c940d" text-anchor="middle" style="white-space: pre;" direction="ltr" dominant-baseline="text-before-edge">User Created</text></g><g mask="url(#mask-NLOFO5cZM0QasLdJuXeMr)" stroke-linecap="round"><g transform="translate(781.3442993164062 1353.4404067993164) rotate(0 -346.99780764691536 1.2085271667689312)"><path d="M0.11 1.1 C-115.65 1.29, -578.22 1.11, -694.1 1.32" stroke="#5c940d" stroke-width="1.5" fill="none" stroke-dasharray="1.5 7"></path></g><g transform="translate(781.3442993164062 1353.4404067993164) rotate(0 -346.99780764691536 1.2085271667689312)"><path d="M-664.09 -8.67 C-676.25 -7, -684.02 -1.15, -694.96 2.66" stroke="#5c940d" stroke-width="1.5" fill="none" stroke-dasharray="1.5 5"></path></g><g transform="translate(781.3442993164062 1353.4404067993164) rotate(0 -346.99780764691536 1.2085271667689312)"><path d="M-664.07 11.85 C-676.28 6.65, -684.04 5.63, -694.96 2.66" stroke="#5c940d" stroke-width="1.5" fill="none" stroke-dasharray="1.5 5"></path></g></g><mask id="mask-NLOFO5cZM0QasLdJuXeMr"><rect x="0" y="0" fill="#fff" width="1575.61865234375" height="1455.3083267211914"></rect><rect x="394.93714141845703" y="1341.874366760254" fill="#000" width="78.53996276855469" height="25" opacity="1"></rect></mask><g transform="translate(394.93714141845703 1341.874366760254) rotate(0 39.40935025103386 12.774567205831431)"><text x="39.269981384277344" y="0" font-family="Virgil, Segoe UI Emoji" font-size="20px" fill="#5c940d" text-anchor="middle" style="white-space: pre;" direction="ltr" dominant-baseline="text-before-edge">200 OK</text></g><g transform="translate(87.4021224975586 1096.0497817993164) rotate(0 14.949989318847656 12.5)"><text x="14.949989318847656" y="0" font-family="Virgil, Segoe UI Emoji" font-size="20px" fill="#5c940d" text-anchor="middle" style="white-space: pre;" direction="ltr" dominant-baseline="text-before-edge">alt</text></g></svg>